<svg width="110" height="143" viewBox="0 0 110 143" fill="none" xmlns="http://www.w3.org/2000/svg">
<path d="M4.17976 34.9551C13.8178 34.8406 24.4563 34.8621 34.0944 34.7739C36.0969 34.7577 38.1074 34.532 40.0914 34.2365C41.4837 34.0305 42.3254 33.2417 41.3708 31.7611C38.8661 27.8594 38.2757 23.6101 38.3108 19.0267C38.3479 14.9584 39.4933 11.5581 41.9981 8.47585C46.4097 3.04682 54.2897 0.800076 61.0459 3.07965C67.8196 5.36789 72.5717 11.8977 72.781 18.9944C72.9107 23.4288 71.9333 27.5181 69.6751 31.3502C68.6195 33.1351 69.0226 33.8233 71.0179 34.1999C71.4274 34.277 71.8454 34.2929 72.2547 34.3263C83.2713 35.0011 94.3007 34.4101 105.315 34.5524" stroke="black" style="stroke:black;stroke-opacity:1;" stroke-width="3"/>
<path d="M104.551 34.4863C106.349 34.4494 107.132 34.8387 107.164 36.8726C107.558 65.3033 108.013 93.7419 108.477 122.172C108.636 132.288 100.332 139.473 91.7059 139.495C77.6669 139.523 63.6243 139.884 49.5795 140.104C49.5802 140.148 49.581 140.2 49.5817 140.244C37.0732 140.44 24.556 140.636 12.0561 140.824C9.96993 140.857 7.8904 140.758 5.80448 140.808C4.40813 140.848 3.7803 140.343 3.7836 138.884C3.79361 127.84 3.07011 116.789 3.61257 105.735C3.64105 105.325 3.65193 104.905 3.72405 104.494C4.07674 102.489 4.76002 102.077 6.55742 103.114C10.4164 105.332 14.5172 106.263 18.9496 106.08C26.0433 105.785 32.5156 100.942 34.7223 94.1238C36.9206 87.3228 34.5793 79.4492 29.0977 75.0912C25.9855 72.6167 22.5718 71.5091 18.5033 71.5206C13.9198 71.5401 9.67789 72.1829 5.80653 74.7408C4.33756 75.7155 3.53867 74.8811 3.31599 73.4877C2.9967 71.502 2.74683 69.4891 2.70659 67.4816C2.50256 57.8195 2.40455 46.1557 2.17433 36.4941C2.13697 34.6699 2.55819 34.9706 4.3828 34.9594" stroke="black" style="stroke:black;stroke-opacity:1;" stroke-width="3"/>
</svg>
